<?xml version="1.0" encoding="UTF-8" standalone="no"?>
<!DOCTYPE svg PUBLIC "-//W3C//DTD SVG 1.1//EN" "http://www.w3.org/Graphics/SVG/1.1/DTD/svg11.dtd">
<svg width="100%" height="100%" viewBox="0 0 3508 4961" version="1.1" xmlns="http://www.w3.org/2000/svg" xmlns:xlink="http://www.w3.org/1999/xlink" xml:space="preserve" xmlns:serif="http://www.serif.com/" style="fill-rule:evenodd;clip-rule:evenodd;stroke-linejoin:round;stroke-miterlimit:2;">
    <g transform="matrix(1,0,0,1,-570.478,398.26)">
        <g transform="matrix(1.34975,0,0,1.30554,21.7379,-1230.91)">
            <path d="M1274.83,1860.8C1274.83,1860.8 1251.09,1717.28 1312.16,1676.89C1373.24,1636.49 1440.08,1602.94 1458.97,1551.59C1477.86,1500.25 1482.56,1691.58 1385.07,1753.54C1287.58,1815.49 1319.98,1806.37 1274.83,1860.8Z"/>
        </g>
        <g transform="matrix(1.34975,0,0,1.30554,10.8662,-1205.55)">
            <path d="M1295.62,2208.64C1295.62,2208.64 1231.35,2189.89 1368.56,2052.14C1505.78,1914.4 1606.54,1783.47 1511.53,1723.85C1416.52,1664.23 1523.23,1731.98 1472.65,1785.91C1422.06,1839.83 1054.71,2093.67 1295.62,2208.64Z"/>
        </g>
        <g transform="matrix(1.34975,0,0,1.30554,64.1655,-1295.6)">
            <path d="M1367.1,2748.84C1367.1,2748.84 1421.3,2753.73 1413.53,2538.89C1405.76,2324.04 1544,2251.66 1558.3,2119.22C1572.6,1986.79 1563.82,1922.84 1563.82,1922.84C1563.82,1922.84 1517.54,2146.7 1438.44,2204.36C1359.33,2262.01 1258.01,2453.64 1333.21,2575.56C1408.41,2697.47 1368.54,2724.84 1367.1,2748.84Z"/>
        </g>
        <g transform="matrix(1.34975,0,0,1.30554,46.923,-1169.32)">
            <path d="M1596.2,2180.89C1596.2,2180.89 1726.71,2338.83 1664.02,2581.21C1601.33,2823.58 1776.29,2895.05 1798.37,3086.34C1820.45,3277.63 1759.65,3004.61 1640.85,2969.4C1522.06,2934.19 1481.05,2769.57 1500.04,2620.41C1519.03,2471.25 1606.05,2254.4 1596.2,2180.89Z"/>
        </g>
        <g transform="matrix(1.34975,0,0,1.30554,-10.2941,-1311.91)">
            <path d="M2224.11,2367.49L2224.11,2762.45C2224.11,2762.45 1921.02,2668.07 1926.76,2935.07C1926.76,2935.07 1945.01,3028.97 2196.92,3028.66L2224.6,2957.42L2229.3,3153.74C2229.3,3153.74 1915.44,3126.27 1894.81,2948.9C1874.17,2771.54 1897.95,2697.82 1839.83,2614.93C1781.71,2532.04 1724.71,2422.79 1710.34,2260.62C1695.96,2098.46 1691.62,2202.64 1582.84,1685.97C1569.4,1622.16 1685.2,1862.8 1691.35,1893.13C1697.49,1923.46 1843.93,2263.59 1845.23,2335.85C1846.53,2408.1 1838.76,2403.3 1905.41,2587.34C1978.04,2787.92 2206.81,2677.54 2068.44,2484.18C2068.44,2484.18 1978.71,2426.47 2018.54,2327.26C2058.37,2228.04 2078.38,2336.46 2124.67,2328.13C2170.97,2319.8 2224.01,2286.23 2224.11,2367.49Z"/>
        </g>
        <g transform="matrix(1.34975,0,0,1.30554,-3.6283,-1311.17)">
            <path d="M2002.01,1969.33C1984.76,2004.98 2017.17,2016.02 2029.36,2009.53C2040.76,2003.47 2100.18,1940.26 2029.26,1834.44C1958.33,1728.61 1767.09,1814.23 1767.09,1814.23C1767.09,1814.23 1780.78,1810.11 1793.72,1828.8C1806.66,1847.49 1839.65,1928.7 1937.2,1941.17C2034.47,1953.6 2006.96,1959.1 2002.01,1969.33Z"/>
        </g>
    </g>
</svg>
